{
    "asset": {
        "copyright": "2020 (c) Adobe Inc.",
        "generator": "Adobe Dimension - 5769982f30ff13dfba89076b81240843d8e6af81",
        "version": "2.0",
        "extensions": {
            "KHR_xmp": {
                "packet": 0
            }
        }
    },
    "accessors": [
        {
            "bufferView": 0,
            "componentType": 5126,
            "count": 88774,
            "type": "VEC3",
            "max": [
                0.39339861273765566,
                -0.16009563207626344,
                0.3275185227394104
            ],
            "min": [
                -0.09810987114906311,
                -0.9500836133956909,
                -0.1427053064107895
            ]
        },
        {
            "bufferView": 1,
            "componentType": 5126,
            "count": 88774,
            "type": "VEC3"
        },
        {
            "bufferView": 2,
            "componentType": 5126,
            "count": 88774,
            "type": "VEC2"
        },
        {
            "bufferView": 3,
            "componentType": 5125,
            "count": 506754,
            "type": "SCALAR",
            "max": [
                88773.0
            ],
            "min": [
                0.0
            ]
        }
    ],
    "bufferViews": [
        {
            "buffer": 0,
            "byteOffset": 0,
            "byteLength": 1065288,
            "target": 34962
        },
        {
            "buffer": 0,
            "byteOffset": 1065288,
            "byteLength": 1065288,
            "target": 34962
        },
        {
            "buffer": 0,
            "byteOffset": 2130576,
            "byteLength": 710192,
            "target": 34962
        },
        {
            "buffer": 0,
            "byteOffset": 2840768,
            "byteLength": 2027016,
            "target": 34963
        }
    ],
    "buffers": [
        {
            "byteLength": 4867784,
            "uri": "alloest_binary.bin"
        }
    ],
    "cameras": [
        {
            "perspective": {
                "znear": 0.00004999524389859289,
                "yfov": 0.6024156808853149,
                "zfar": 2.7497384548187258,
                "aspectRatio": 1.3333333730697632
            },
            "type": "perspective",
            "name": "render_camera"
        },
        {
            "perspective": {
                "znear": 0.00004999524389859289,
                "yfov": 0.6024156808853149,
                "zfar": 2.7497384548187258,
                "aspectRatio": 1.3333333730697632
            },
            "type": "perspective",
            "name": "render_camera3"
        }
    ],
    "materials": [
        {
            "pbrMetallicRoughness": {
                "metallicFactor": 0.0,
                "roughnessFactor": 0.6000000238418579
            },
            "name": "Default Material",
            "doubleSided": true
        }
    ],
    "meshes": [
        {
            "name": "mmGroup0",
            "primitives": [
                {
                    "attributes": {
                        "POSITION": 0,
                        "NORMAL": 1,
                        "TEXCOORD_0": 2
                    },
                    "indices": 3,
                    "material": 0
                }
            ]
        }
    ],
    "nodes": [
        {
            "translation": [
                9.026090621948243,
                7.121084213256836,
                9.141858100891114
            ],
            "rotation": [
                -0.1471526026725769,
                0.37181976437568667,
                0.05982226878404617,
                0.9146133065223694
            ],
            "scale": [
                1.0,
                0.9999999403953552,
                1.0
            ],
            "camera": 0,
            "name": "render_camera_n3d"
        },
        {
            "name": "Group"
        },
        {
            "translation": [
                5.25784969329834,
                5.288073539733887,
                5.064604759216309
            ],
            "rotation": [
                -0.14588481187820435,
                0.3906426429748535,
                0.06285069137811661,
                0.9067335724830627
            ],
            "scale": [
                1.0,
                0.9999999403953552,
                1.0
            ],
            "camera": 1,
            "name": "Allosarus Phalanx"
        },
        {
            "translation": [
                2.6670584678649904,
                5.994617938995361,
                2.725525140762329
            ],
            "scale": [
                2.39789080619812,
                2.39789080619812,
                2.39789080619812
            ],
            "mesh": 0,
            "name": "mmGroup0"
        }
    ],
    "scenes": [
        {
            "nodes": [
                0,
                1,
                2,
                3
            ],
            "name": "scene"
        }
    ],
    "scene": 0,
    "extensions": {
        "KHR_xmp": {
            "@context": {
                "dc": "http://purl.org/dc/elements/1.1/"
            },
            "packets": [
                {
                    "dc:date": "2020-09-21T19:45:41.557-05:00",
                    "dc:format": "model/gltf+json",
                    "dc:title": "AllosaurusTest.dn",
                    "xmp:CreatorTool": "Adobe Dimension"
                }
            ]
        }
    },
    "extensionsUsed": [
        "KHR_xmp"
    ]
}