{
    "asset": {
        "copyright": "2020 (c) Adobe Inc.",
        "generator": "Adobe Dimension - 5769982f30ff13dfba89076b81240843d8e6af81",
        "version": "2.0",
        "extensions": {
            "KHR_xmp": {
                "packet": 0
            }
        }
    },
    "accessors": [
        {
            "bufferView": 0,
            "componentType": 5126,
            "count": 4,
            "type": "VEC3",
            "max": [
                1.0,
                0.0,
                1.0
            ],
            "min": [
                -1.0,
                0.0,
                -1.0
            ]
        },
        {
            "bufferView": 1,
            "componentType": 5126,
            "count": 4,
            "type": "VEC3"
        },
        {
            "bufferView": 2,
            "componentType": 5126,
            "count": 4,
            "type": "VEC2"
        },
        {
            "bufferView": 3,
            "componentType": 5125,
            "count": 6,
            "type": "SCALAR",
            "max": [
                3.0
            ],
            "min": [
                0.0
            ]
        },
        {
            "bufferView": 4,
            "componentType": 5126,
            "count": 102594,
            "type": "VEC3",
            "max": [
                0.2958359122276306,
                -0.008163484744727612,
                0.8226866722106934
            ],
            "min": [
                -0.2958359122276306,
                -0.3326147794723511,
                -0.8212652206420898
            ]
        },
        {
            "bufferView": 5,
            "componentType": 5126,
            "count": 102594,
            "type": "VEC3"
        },
        {
            "bufferView": 6,
            "componentType": 5126,
            "count": 102594,
            "type": "VEC2"
        },
        {
            "bufferView": 7,
            "componentType": 5125,
            "count": 588690,
            "type": "SCALAR",
            "max": [
                102593.0
            ],
            "min": [
                0.0
            ]
        }
    ],
    "bufferViews": [
        {
            "buffer": 0,
            "byteOffset": 0,
            "byteLength": 48,
            "target": 34962
        },
        {
            "buffer": 0,
            "byteOffset": 48,
            "byteLength": 48,
            "target": 34962
        },
        {
            "buffer": 0,
            "byteOffset": 96,
            "byteLength": 32,
            "target": 34962
        },
        {
            "buffer": 0,
            "byteOffset": 128,
            "byteLength": 24,
            "target": 34963
        },
        {
            "buffer": 0,
            "byteOffset": 152,
            "byteLength": 1231128,
            "target": 34962
        },
        {
            "buffer": 0,
            "byteOffset": 1231280,
            "byteLength": 1231128,
            "target": 34962
        },
        {
            "buffer": 0,
            "byteOffset": 2462408,
            "byteLength": 820752,
            "target": 34962
        },
        {
            "buffer": 0,
            "byteOffset": 3283160,
            "byteLength": 2354760,
            "target": 34963
        }
    ],
    "buffers": [
        {
            "byteLength": 5637920,
            "uri": "MWC 2763 Allosaurus Rib_binary.bin"
        }
    ],
    "cameras": [
        {
            "perspective": {
                "znear": 0.000061014510720269757,
                "yfov": 0.6024156808853149,
                "zfar": 3.3557982444763185,
                "aspectRatio": 1.3333333730697632
            },
            "type": "perspective",
            "name": "render_camera"
        },
        {
            "perspective": {
                "znear": 0.000061014510720269757,
                "yfov": 0.6024156808853149,
                "zfar": 3.3557982444763185,
                "aspectRatio": 1.3333333730697632
            },
            "type": "perspective",
            "name": "render_camera3"
        },
        {
            "perspective": {
                "znear": 0.000061014510720269757,
                "yfov": 0.6024156808853149,
                "zfar": 3.3557982444763185,
                "aspectRatio": 1.3333333730697632
            },
            "type": "perspective",
            "name": "render_camera4"
        },
        {
            "perspective": {
                "znear": 0.000061014510720269757,
                "yfov": 0.6024156808853149,
                "zfar": 3.3557982444763185,
                "aspectRatio": 1.3333333730697632
            },
            "type": "perspective",
            "name": "render_camera5"
        },
        {
            "perspective": {
                "znear": 0.000061014510720269757,
                "yfov": 0.6024156808853149,
                "zfar": 3.3557982444763185,
                "aspectRatio": 1.3333333730697632
            },
            "type": "perspective",
            "name": "render_camera6"
        },
        {
            "perspective": {
                "znear": 0.000061014510720269757,
                "yfov": 0.6024156808853149,
                "zfar": 3.3557982444763185,
                "aspectRatio": 1.3333333730697632
            },
            "type": "perspective",
            "name": "render_camera7"
        }
    ],
    "images": [
        {
            "name": "Allosaurus Rib",
            "uri": "MWC 2763 Allosaurus Rib_images/Allosaurus Rib.jpg",
            "mimeType": "image/jpeg"
        }
    ],
    "materials": [
        {
            "pbrMetallicRoughness": {
                "baseColorTexture": {
                    "index": 0
                },
                "metallicFactor": 0.0,
                "roughnessFactor": 0.4000000059604645
            },
            "name": "Default Material",
            "doubleSided": true
        },
        {
            "pbrMetallicRoughness": {
                "metallicFactor": 0.0,
                "roughnessFactor": 0.6000000238418579
            },
            "name": "Default Material",
            "doubleSided": true
        }
    ],
    "meshes": [
        {
            "name": "PROCEDURAL_MESHES_PLANE#",
            "primitives": [
                {
                    "attributes": {
                        "TEXCOORD_0": 2,
                        "NORMAL": 1,
                        "POSITION": 0
                    },
                    "indices": 3,
                    "material": 0
                }
            ]
        },
        {
            "name": "mmGroup0 2",
            "primitives": [
                {
                    "attributes": {
                        "POSITION": 4,
                        "NORMAL": 5,
                        "TEXCOORD_0": 6
                    },
                    "indices": 7,
                    "material": 1
                }
            ]
        }
    ],
    "nodes": [
        {
            "translation": [
                0.016494864597916604,
                4.490271091461182,
                1.63350510597229
            ],
            "rotation": [
                -0.5788720846176148,
                0.002394662471488118,
                0.0016999272629618645,
                0.8154130578041077
            ],
            "scale": [
                1.0,
                0.9999999403953552,
                1.0
            ],
            "camera": 0,
            "name": "render_camera_n3d"
        },
        {
            "translation": [
                0.005862597841769457,
                0.0,
                0.010269549675285817
            ],
            "mesh": 0,
            "name": "Plane"
        },
        {
            "translation": [
                -0.022625984624028207,
                1.1161972284317017,
                0.4422878623008728
            ],
            "rotation": [
                0.16779738664627076,
                0.7309491038322449,
                0.21867778897285462,
                0.6242895722389221
            ],
            "scale": [
                1.0000001192092896,
                1.0000001192092896,
                0.9999998211860657
            ],
            "mesh": 1,
            "name": "mmGroup0 2"
        },
        {
            "translation": [
                0.016494864597916604,
                4.490271091461182,
                1.63350510597229
            ],
            "rotation": [
                -0.5788720846176148,
                0.002394662471488118,
                0.0016999272629618645,
                0.8154130578041077
            ],
            "scale": [
                1.0,
                0.9999999403953552,
                1.0
            ],
            "camera": 1,
            "name": "Start Here - Allosaurus Rib"
        },
        {
            "translation": [
                3.694902181625366,
                2.3188161849975588,
                0.02580924890935421
            ],
            "rotation": [
                -0.14717896282672883,
                0.699630081653595,
                0.15082404017448426,
                0.6827211976051331
            ],
            "scale": [
                1.0,
                1.0,
                0.9999999403953552
            ],
            "camera": 2,
            "name": "Allosaurus Rib - Right Side"
        },
        {
            "translation": [
                -3.8649392127990724,
                1.8818763494491578,
                0.05538102984428406
            ],
            "rotation": [
                -0.10639479756355286,
                -0.7047304511070252,
                -0.10818660259246826,
                0.6930590271949768
            ],
            "scale": [
                1.0000001192092896,
                1.0,
                1.0000001192092896
            ],
            "camera": 3,
            "name": "Allosaurus Rib - Left Side"
        },
        {
            "translation": [
                -0.07509204745292664,
                1.7827996015548707,
                -3.812079668045044
            ],
            "rotation": [
                0.0008697491139173508,
                0.990270733833313,
                0.13901348412036897,
                -0.006195394787937403
            ],
            "scale": [
                1.0000001192092896,
                1.0,
                1.0000001192092896
            ],
            "camera": 4,
            "name": "Allosaurus Rib - Back View"
        },
        {
            "translation": [
                0.22256974875926972,
                -0.9692403674125671,
                -3.615973472595215
            ],
            "rotation": [
                0.006922566797584295,
                0.9779576659202576,
                -0.20608685910701753,
                0.03285032510757446
            ],
            "scale": [
                0.9999997615814209,
                1.0,
                0.9999998211860657
            ],
            "camera": 5,
            "name": "Allosaurus Rib - Bottom View"
        }
    ],
    "samplers": [
        {}
    ],
    "scenes": [
        {
            "nodes": [
                0,
                1,
                2,
                3,
                4,
                5,
                6,
                7
            ],
            "name": "scene"
        }
    ],
    "textures": [
        {
            "name": "texture9238",
            "sampler": 0,
            "source": 0
        }
    ],
    "scene": 0,
    "extensions": {
        "KHR_xmp": {
            "@context": {
                "dc": "http://purl.org/dc/elements/1.1/"
            },
            "packets": [
                {
                    "dc:date": "2020-09-22T10:33:26.29-05:00",
                    "dc:format": "model/gltf+json",
                    "dc:title": "AllosarusRib.dn",
                    "xmp:CreatorTool": "Adobe Dimension"
                }
            ]
        }
    },
    "extensionsUsed": [
        "KHR_xmp"
    ]
}